<?xml version="1.0" encoding="UTF-8"?>
<svg width="70px" height="70px" viewBox="0 0 70 70" version="1.1" xmlns="http://www.w3.org/2000/svg" xmlns:xlink="http://www.w3.org/1999/xlink">
    <!-- Generator: Sketch 63.1 (92452) - https://sketch.com -->
    <title>ic_baggage</title>
    <desc>Created with Sketch.</desc>
    <g id="Page-1" stroke="none" stroke-width="1" fill="none" fill-rule="evenodd">
        <g id="Mai---Home_Multi" transform="translate(-782.000000, -976.000000)" fill-rule="nonzero">
            <g id="Group-9" transform="translate(0.000000, 918.000000)">
                <g id="ic_baggage" transform="translate(782.000000, 58.000000)">
                    <path d="M70,20.5172414 L70,61.5517241 C70,64.2179264 67.838616,66.3793106 65.1724138,66.3793106 L38.6206897,66.3793106 C37.3401992,66.3793106 36.1120279,65.8712729 35.2065844,64.9658294 C34.3011409,64.0603859 33.7926631,62.8322146 33.7931032,61.5517241 L33.7931032,20.5172414 C33.7931032,17.8510391 35.9544874,15.6896552 38.6206897,15.6896552 L65.1724138,15.6896552 C67.838616,15.6896552 70,17.8510391 70,20.5172414 Z" id="Path" fill="#3086CD"></path>
                    <path d="M70,23.0532328 L70,61.5517241 C70,64.2179264 67.838616,66.3793103 65.1724138,66.3793103 L38.6206897,66.3793103 C36.2926949,66.3787193 34.2964511,64.7174029 33.8730603,62.4282328 C45.3189655,56.8387931 61.1881466,45.4200431 70,23.0532328 Z" id="Path" fill="#034EA2"></path>
                    <circle id="Oval" fill="#9F9E9E" cx="63.9655172" cy="63.9655172" r="6.03448276"></circle>
                    <g id="Group" transform="translate(39.827586, 20.517241)" fill="#8BC2FF">
                        <polygon id="Path" points="7.24137931 0 9.65517241 0 9.65517241 41.0344828 7.24137931 41.0344828"></polygon>
                        <polygon id="Path" points="14.4827586 0 16.8965517 0 16.8965517 37.4137931 14.4827586 37.4137931"></polygon>
                        <polygon id="Path" points="21.7241379 0 24.137931 0 24.137931 33.7931034 21.7241379 33.7931034"></polygon>
                        <polygon id="Path" points="0 0 2.4137931 0 2.4137931 41.0344828 0 41.0344828"></polygon>
                    </g>
                    <rect id="Rectangle" fill="#9F9E9E" x="43.4482759" y="0" width="16.8965517" height="4.82758621" rx="2.4137931"></rect>
                    <polygon id="Path" fill="#C3C3C3" points="45.862069 4.82758621 48.2758621 4.82758621 48.2758621 15.6896552 45.862069 15.6896552"></polygon>
                    <polygon id="Path" fill="#C3C3C3" points="55.5172414 4.82758621 57.9310345 4.82758621 57.9310345 15.6896552 55.5172414 15.6896552"></polygon>
                    <polygon id="Path" fill="#D6D6D4" points="45.862069 4.82758621 48.2758621 4.82758621 48.2758621 7.24137931 45.862069 7.24137931"></polygon>
                    <polygon id="Path" fill="#D6D6D4" points="55.5172414 4.82758621 57.9310345 4.82758621 57.9310345 7.24137931 55.5172414 7.24137931"></polygon>
                    <path d="M49.482759,65.1724138 C49.482759,67.838616 47.3213747,70.0000019 44.6551724,70.0000019 L4.82758621,70.0000019 C3.54688708,70.0011221 2.31831958,69.4928632 1.41272819,68.5872718 C0.507136805,67.6816804 -0.00112208512,66.4531129 -1.85398078e-06,65.1724138 L-1.85398078e-06,41.0344828 C-1.85398078e-06,38.3682805 2.16138397,36.2068962 4.82758621,36.2068962 L44.6551724,36.2068962 C45.9356874,36.206376 47.1639053,36.7148281 48.0693662,37.620289 C48.9748271,38.5257499 49.4832791,39.7539678 49.482759,41.0344828 L49.482759,65.1724138 Z" id="Path" fill="#FFF3A7"></path>
                    <path d="M49.4827602,41.0344828 L49.4827602,65.1724138 C49.4827602,67.838616 47.3213747,70.0000062 44.6551724,70.0000062 L4.82758621,70.0000062 C3.82208389,70.0016109 2.84133096,69.6882343 2.02306034,69.1038793 C13.7721983,65.9765086 34.9185345,57.737931 47.7146552,37.2991379 C48.8348237,38.215741 49.4839451,39.587093 49.4827602,41.0344828 L49.4827602,41.0344828 Z" id="Path" fill="#FFDD00"></path>
                    <path d="M47.0689655,62.7586207 L49.4827586,62.7586207 L49.4827586,70 L42.2413793,70 L42.2413793,67.5862069 C42.2413793,64.9200047 44.4027633,62.7586207 47.0689655,62.7586207 Z" id="Path" fill="#D6BA00" transform="translate(45.862069, 66.379310) rotate(-180.000000) translate(-45.862069, -66.379310) "></path>
                    <path d="M42.2413793,36.2068966 L49.4827586,36.2068966 L49.4827586,43.4482759 L47.0689655,43.4482759 C44.4027633,43.4482759 42.2413793,41.2868919 42.2413793,38.6206897 L42.2413793,36.2068966 Z" id="Path" fill="#D6BA00" transform="translate(45.862069, 39.827586) rotate(-180.000000) translate(-45.862069, -39.827586) "></path>
                    <path d="M13.2758621,30.1724138 L13.2758621,36.2068966 L18.1034483,36.2068966 L18.1034483,31.3793103 L30.1724138,31.3793103 L30.1724138,36.2068966 L35,36.2068966 L35,30.1724138 C35,28.1727621 33.378962,26.5517241 31.3793103,26.5517241 L16.8965517,26.5517241 C14.8969,26.5517241 13.2758621,28.1727621 13.2758621,30.1724138 L13.2758621,30.1724138 Z" id="Path" fill="#9F9E9E"></path>
                    <polygon id="Path" fill="#D6BA00" points="10.862069 41.0344828 37.4137931 41.0344828 37.4137931 43.4482759 10.862069 43.4482759"></polygon>
                    <polygon id="Path" fill="#D6BA00" points="4.82758621 48.2758621 43.4482759 48.2758621 43.4482759 50.6896552 4.82758621 50.6896552"></polygon>
                    <polygon id="Path" fill="#D6BA00" points="4.82758621 55.5172414 43.4482759 55.5172414 43.4482759 57.9310345 4.82758621 57.9310345"></polygon>
                    <polygon id="Path" fill="#D6BA00" points="10.862069 62.7586207 37.4137931 62.7586207 37.4137931 65.1724138 10.862069 65.1724138"></polygon>
                    <path d="M0,62.7586207 L7.24137931,62.7586207 L7.24137931,70 L4.82758621,70 C2.16138397,70 0,67.838616 0,65.1724138 L0,62.7586207 Z" id="Path" fill="#D6BA00"></path>
                    <path d="M4.82758621,36.2068966 L7.24137931,36.2068966 L7.24137931,43.4482759 L0,43.4482759 L0,41.0344828 C0,38.3682805 2.16138397,36.2068966 4.82758621,36.2068966 Z" id="Path" fill="#D6BA00"></path>
                </g>
            </g>
        </g>
    </g>
</svg>