<?xml version="1.0" encoding="UTF-8"?>
<svg width="68px" height="66px" viewBox="0 0 68 66" version="1.1" xmlns="http://www.w3.org/2000/svg" xmlns:xlink="http://www.w3.org/1999/xlink">
    <!-- Generator: Sketch 63.1 (92452) - https://sketch.com -->
    <title>ic_seat</title>
    <desc>Created with Sketch.</desc>
    <g id="Page-1" stroke="none" stroke-width="1" fill="none" fill-rule="evenodd">
        <g id="Mai---Home_Multi" transform="translate(-410.000000, -1201.000000)" fill-rule="nonzero">
            <g id="Group-9" transform="translate(0.000000, 918.000000)">
                <g id="Group-7" transform="translate(157.000000, 247.000000)">
                    <g id="ic_seat" transform="translate(253.000000, 36.000000)">
                        <path d="M19.1375641,31.3220339 L32.0835633,31.3220339 C33.6378846,31.3220339 34.8979109,32.5741189 34.8979109,34.1186441 C34.8979109,35.6631692 33.6378846,36.9152542 32.0835633,36.9152542 L16.8860859,36.9152542 L16.8860859,33.559322 C16.8860859,32.3237019 17.894107,31.3220339 19.1375641,31.3220339 L19.1375641,31.3220339 Z" id="Path" fill="#D6D6D4"></path>
                        <path d="M24.7662594,31.3220339 L32.0835633,31.3220339 C33.6378846,31.3220339 34.8979109,32.5741189 34.8979109,34.1186441 C34.8979109,35.6631692 33.6378846,36.9152542 32.0835633,36.9152542 L22.5147812,36.9152542 L22.5147812,33.559322 C22.5147812,32.3237019 23.5228023,31.3220339 24.7662594,31.3220339 L24.7662594,31.3220339 Z" id="Path" fill="#C3C3C3"></path>
                        <path d="M58.6825258,8.94914591 C58.6776007,8.94914591 58.6730978,8.95055085 58.6684541,8.95055085 L58.6684541,8.94914591 L38.355337,8.94914591 L38.355337,8.95055085 C36.9070694,8.95347796 35.518678,9.52515769 34.4927856,10.5409831 C32.6548283,12.3615143 31.7482145,14.912881 32.0282613,17.4765763 L32.3120883,20.0701525 L27.0703658,42.5084746 L10.1427682,42.5084746 C7.65585417,42.5084746 5.63981198,44.5118106 5.63981198,46.9830508 C5.63981198,49.4542911 7.65585417,51.4576297 10.1427682,51.4576297 L50.9174592,51.4576297 C54.1159308,51.4603844 56.8795882,49.2375438 57.5432779,46.1284068 L64.0475168,15.5035678 C64.3861132,13.8988224 63.9780372,12.2279291 62.9368632,10.9559257 C61.8956892,9.68392227 60.3325618,8.94659427 58.6825258,8.94914591 L58.6825258,8.94914591 Z" id="Path" fill="#398AE5"></path>
                        <path d="M26.0355302,51.4576271 L23.784052,59.2881356 L14.21527,59.2881356 C12.6609487,59.2881356 11.4009223,60.5402206 11.4009223,62.0847458 C11.4009223,63.6292709 12.6609487,64.8813559 14.21527,64.8813559 L28.2870083,64.8813559 L31.6642255,51.4576271 L26.0355302,51.4576271 Z" id="Path" fill="#C3C3C3"></path>
                        <path d="M36.1671817,64.8813559 L14.21527,64.8813559 C12.6609487,64.8813559 11.4009223,63.6292709 11.4009223,62.0847458 C11.4009223,60.5402206 12.6609487,59.2881356 14.21527,59.2881356 L36.1671817,59.2881356 L36.1671817,64.8813559 Z" id="Path" fill="#E0E0DE"></path>
                        <path d="M46.2988333,51.4576271 L44.0473551,59.2881356 L34.4785731,59.2881356 C32.9242518,59.2881356 31.6642255,60.5402206 31.6642255,62.0847458 C31.6642255,63.6292709 32.9242518,64.8813559 34.4785731,64.8813559 L48.5503114,64.8813559 L51.9275286,51.4576271 L46.2988333,51.4576271 Z" id="Path" fill="#C3C3C3"></path>
                        <rect id="Rectangle" fill="#034EA2" x="36.1676039" y="19.0169492" width="16.8860859" height="2.23728814" rx="1.11864407"></rect>
                        <path d="M52.6098672,20.0702924 L52.3256181,17.4768559 C52.0454684,14.9125424 52.9534406,12.3607042 54.7933788,10.5412627 C55.8245456,9.52127492 57.2203857,8.94913646 58.6753492,8.94913646 C60.3263485,8.94516835 61.8909898,9.68176276 62.9336084,10.9538357 C63.976227,12.2259086 64.3854663,13.8975963 64.047376,15.503428 L57.5346941,46.1285466 C56.8679893,49.2393658 54.1010443,51.4619131 50.9002917,51.457635 L30.4118408,51.457635 C29.2153426,51.4598543 28.0669598,50.9896778 27.2193245,50.1505316 C26.3716892,49.3113853 25.8942356,48.172008 25.8919984,46.9830508 C25.8942356,45.7940937 26.3716892,44.6547164 27.2193245,43.8155701 C28.0669598,42.9764239 29.2153426,42.5062474 30.4118408,42.5084746 L47.3615309,42.5084746 L52.6098672,20.0702924 Z" id="Path" fill="#034EA2"></path>
                        <path d="M39.4008672,31.3220339 L52.3468664,31.3220339 C53.9011877,31.3220339 55.161214,32.5741189 55.161214,34.1186441 C55.161214,35.6631692 53.9011877,36.9152542 52.3468664,36.9152542 L37.149389,36.9152542 L37.149389,33.559322 C37.149389,32.3237019 38.1574101,31.3220339 39.4008672,31.3220339 L39.4008672,31.3220339 Z" id="Path" fill="#D0D0D0"></path>
                        <path d="M45.0295625,31.3220339 L52.3468664,31.3220339 C53.9011877,31.3220339 55.161214,32.5741189 55.161214,34.1186441 C55.161214,35.6631692 53.9011877,36.9152542 52.3468664,36.9152542 L42.7780844,36.9152542 L42.7780844,33.559322 C42.7780844,32.3237019 43.7861054,31.3220339 45.0295625,31.3220339 L45.0295625,31.3220339 Z" id="Path" fill="#F1F1F1"></path>
                        <polygon id="Path" fill="#D6D6D4" points="0 63.7627119 67.5443437 63.7627119 67.5443437 66 0 66"></polygon>
                        <rect id="Rectangle" fill="#8BC2FF" x="3.37721719" y="0" width="18.011825" height="26.8474576" rx="9.0059125"></rect>
                        <path d="M9.0059125,16.779661 C9.0059125,14.9262308 7.49388086,13.4237288 5.62869531,13.4237288 L3.37721719,13.4237288 L3.37721719,21.2542373 L10.1316516,21.2542373 C11.3751086,21.2542373 12.3831297,20.2525693 12.3831297,19.0169492 C12.3831297,17.781329 11.3751086,16.779661 10.1316516,16.779661 L9.0059125,16.779661 Z" id="Path" fill="#E0E0DE"></path>
                        <path d="M16.8889003,21.2514407 L16.8889003,5.59601695 C16.8889003,2.50542213 14.3675875,0 11.2573906,0 L15.7603469,0 C18.8705438,0 21.3918565,2.50542213 21.3918565,5.59601695 L21.3918565,21.2514407 C21.3918565,24.3420355 18.8705438,26.8474576 15.7603469,26.8474576 L11.2573906,26.8474576 C14.3675875,26.8474576 16.8889003,24.3420355 16.8889003,21.2514407 Z" id="Path" fill="#C3C3C3"></path>
                        <path d="M15.7575325,-9.37916411e-15 L9.00872684,-9.37916411e-15 C5.89956437,-0.000154721397 3.37861568,2.50365374 3.37721719,5.59322034 L21.3890422,5.59322034 C21.3876437,2.50365374 18.866695,-0.000154721397 15.7575325,-9.37916411e-15 Z" id="Path" fill="#E0E0DE"></path>
                        <polygon id="Path" fill="#CFCFCD" points="16.8860859 5.59322034 21.3890422 5.59322034 21.3890422 7.83050847 16.8860859 7.83050847"></polygon>
                        <polygon id="Path" fill="#CFCFCD" points="26.0355302 51.4576271 25.392311 53.6949153 31.1013559 53.6949153 31.6642255 51.4576271"></polygon>
                        <polygon id="Path" fill="#D6D6D4" points="51.9275286 51.4576271 46.2988333 51.4576271 45.6556141 53.6949153 51.364659 53.6949153"></polygon>
                    </g>
                </g>
            </g>
        </g>
    </g>
</svg>