<svg width="77" height="66" viewBox="0 0 77 66" fill="none" xmlns="http://www.w3.org/2000/svg">
<path d="M38.0761 63.4616C54.1986 63.4616 67.2684 50.3917 67.2684 34.2692C67.2684 18.1468 54.1986 5.07693 38.0761 5.07693C21.9536 5.07693 8.88379 18.1468 8.88379 34.2692C8.88379 50.3917 21.9536 63.4616 38.0761 63.4616Z" fill="#3086CD"/>
<path d="M38.0762 53.3077C48.5908 53.3077 57.1146 44.7839 57.1146 34.2692C57.1146 23.7546 48.5908 15.2308 38.0762 15.2308C27.5615 15.2308 19.0377 23.7546 19.0377 34.2692C19.0377 44.7839 27.5615 53.3077 38.0762 53.3077Z" fill="#8BC2FF"/>
<path d="M72.3454 66C70.2425 66 68.5377 64.2952 68.5377 62.1923V38.0769H76.1531V62.1923C76.1531 64.2952 74.4483 66 72.3454 66Z" fill="#034EA2"/>
<path d="M76.153 38.0769H63.4607V10.1538C63.4607 4.54603 68.0067 0 73.6145 0H76.153V38.0769Z" fill="#FFDD00"/>
<path d="M6.34534 21.5769H11.4223V59.6539H6.34534V21.5769Z" fill="#FFDD00"/>
<path d="M5.07617 38.0769H12.6916V62.1923C12.6916 64.2952 10.9868 66 8.88386 66C6.78093 66 5.07617 64.2952 5.07617 62.1923V38.0769Z" fill="#034EA2"/>
<path d="M17.7573 16.5809L17.6383 14.7072L17.5907 13.9615L16.7768 1.18832C16.7289 0.508044 16.1519 -0.0127212 15.4703 0.00903252C14.7887 0.0307862 14.2461 0.587283 14.2416 1.26923C14.2416 1.29779 14.2431 1.32317 14.2447 1.35014L15.0507 14.0091C14.4653 14.4216 12.8026 15.0388 10.153 15.1927V1.26923C10.153 0.568254 9.58479 0 8.88382 0C8.18284 0 7.61459 0.568254 7.61459 1.26923V15.1943C5.11738 15.0436 3.37218 14.4756 2.71853 14.006L3.5229 1.35014C3.52449 1.32317 3.52608 1.29779 3.52608 1.26923C3.52157 0.587283 2.97898 0.0307862 2.29736 0.00903252C1.61574 -0.0127212 1.03877 0.508044 0.990789 1.18832L0.176894 13.9615L0.130885 14.7009L0.0103079 16.5873C-0.0857558 18.2125 0.492887 19.8054 1.60969 20.9901C2.7265 22.1748 4.28254 22.8462 5.91064 22.8462H11.857C13.4862 22.8462 15.0432 22.1738 16.1602 20.9877C17.2771 19.8017 17.855 18.2072 17.7573 16.5809Z" fill="#FFDD00"/>
</svg>
