<?xml version="1.0" encoding="UTF-8"?>
<svg width="69px" height="66px" viewBox="0 0 69 66" version="1.1" xmlns="http://www.w3.org/2000/svg" xmlns:xlink="http://www.w3.org/1999/xlink">
    <!-- Generator: Sketch 63.1 (92452) - https://sketch.com -->
    <title>ic_vip</title>
    <desc>Created with Sketch.</desc>
    <g id="Page-1" stroke="none" stroke-width="1" fill="none" fill-rule="evenodd">
        <g id="Mai---Home_Multi" transform="translate(-222.000000, -1201.000000)" fill-rule="nonzero">
            <g id="Group-9" transform="translate(0.000000, 918.000000)">
                <g id="Group-7" transform="translate(157.000000, 247.000000)">
                    <g id="ic_vip" transform="translate(65.000000, 36.000000)">
                        <path d="M39.7434585,3.40920344 L43.9786401,12.0076696 C45.8862759,15.8811452 49.5739535,18.5661681 53.8394649,19.1871189 L63.3091405,20.565787 C68.3151157,21.2952077 70.3137408,27.4596513 66.691429,30.9977611 L59.8395233,37.6909299 C56.7526882,40.7055545 55.3439243,45.0495904 56.0728838,49.3071646 L57.6902954,58.7576696 C58.5452802,63.7540967 53.312355,67.5636433 48.8350584,65.2050782 L40.3652182,60.7426163 C36.5499465,58.7330412 31.9915963,58.7330412 28.1763247,60.7426163 L19.7064845,65.2050782 C15.229188,67.5636433 9.99626265,63.7540967 10.8512475,58.7576696 L12.4686591,49.3071646 C13.1970956,45.0495904 11.7888546,40.7060784 8.70201957,37.6909299 L1.85011383,30.9977611 C-1.77219782,27.4596513 0.226427134,21.2946838 5.23240245,20.565787 L14.7015551,19.1871189 C18.9675894,18.5661681 22.6552669,15.8811452 24.5629028,12.0076696 L28.7975615,3.40920344 C31.0362097,-1.13605183 37.5048102,-1.13605183 39.7434585,3.40920344 L39.7434585,3.40920344 Z" id="Path" fill="#3086CD"></path>
                        <path d="M39.7434585,3.40920344 C37.5048102,-1.13605183 31.0362097,-1.13605183 28.7975615,3.40920344 L24.5629028,12.0076696 C22.6552669,15.8811452 18.9675894,18.5661681 14.7015551,19.1871189 L5.23240245,20.565787 C0.226427134,21.2952077 -1.77272084,27.4596513 1.84959094,30.9977611 L8.70201957,37.6909299 C11.7888546,40.7055545 13.1970956,45.0495904 12.4686591,49.3071646 L10.8507246,58.7576696 C9.99573975,63.7540967 15.228665,67.5636433 19.7064845,65.2050782 L23.9882065,62.9492187 C25.0769395,54.1233327 24.6627817,44.9573647 24.0253343,38.210747 C23.4642342,32.2737234 25.4110894,26.350848 29.4669074,21.9863758 C37.7291458,13.0955126 39.7434585,3.40920344 39.7434585,3.40920344 Z" id="Path" fill="#034EA2"></path>
                        <g id="Group" transform="translate(14.725610, 26.292683)" fill="#FFDD00">
                            <path d="M13.0684558,0.117378049 C11.9818145,-0.235804049 10.8151655,0.361566244 10.463236,1.45045732 L7.28384295,11.287157 L4.10392704,1.45045732 C3.75199755,0.361566244 2.58587142,-0.235804049 1.49870723,0.117378049 C0.412066068,0.470036171 -0.184070122,1.63910061 0.168382261,2.72799168 L5.31554766,18.6531535 C5.59217587,19.5083365 6.38702413,20.0873667 7.28384295,20.0873667 C8.1806619,20.0873667 8.97498726,19.5083365 9.25161533,18.6531535 L14.3993036,2.72799168 C14.7512331,1.63857663 14.15562,0.470036171 13.0684558,0.117378049 Z" id="Path"></path>
                            <path d="M19.5449002,0.0162443171 C18.4023059,0.0162443171 17.4762031,0.944264415 17.4762031,2.0892245 L17.4762031,18.0143864 C17.4762031,19.1593465 18.4023059,20.0873667 19.5449002,20.0873667 C20.6874946,20.0873667 21.6135974,19.1593465 21.6135974,18.0143864 L21.6135974,2.0892245 C21.6135974,0.944264415 20.6874946,0.0162443171 19.5449002,0.0162443171 Z" id="Path"></path>
                            <path d="M32.9187451,0.0162443171 L27.4698511,0.0162443171 C26.3277797,0.0162443171 25.4011539,0.944264415 25.4011539,2.0892245 L25.4011539,18.0143864 C25.4011539,19.1593465 26.3277797,20.0873667 27.4698511,20.0873667 C28.6124454,20.0873667 29.5385483,19.1593465 29.5385483,18.0143864 L29.5385483,14.1555831 L32.9187451,14.1555831 C36.183375,14.1555831 38.8393186,11.4941407 38.8393186,8.22222755 L38.8393186,5.94959978 C38.8393186,2.6776868 36.183375,0.0162443171 32.9187451,0.0162443171 Z M34.7024472,8.22222755 C34.7024472,9.20788872 33.9018468,10.0096228 32.9187451,10.0096228 L29.5385483,10.0096228 L29.5385483,4.16220468 L32.9187451,4.16220468 C33.9018468,4.16220468 34.7024472,4.96393861 34.7024472,5.94959978 L34.7024472,8.22222755 Z" id="Shape"></path>
                        </g>
                    </g>
                </g>
            </g>
        </g>
    </g>
</svg>