<svg width="70" height="70" viewBox="0 0 70 70" fill="none" xmlns="http://www.w3.org/2000/svg">
<path d="M70 26.6342H0V64.16H70V26.6342Z" fill="#D6BA00"/>
<path d="M43.2418 2.00659H27.0332V13.4774H43.2418V2.00659Z" fill="#D6BA00"/>
<path d="M38.7821 6.91597H35.9633V4.09711H34.3118V6.91597H31.4929V8.56808H34.3118V11.3863H35.9633V8.56808H38.7821V6.91597Z" fill="#034EA2"/>
<path d="M8.51227 29.7092H3.34863V34.8741H8.51227V29.7092Z" fill="#034EA2"/>
<path d="M16.945 29.7092H11.7808V34.8741H16.945V29.7092Z" fill="#034EA2"/>
<path d="M8.51227 38.0712H3.34863V43.2361H8.51227V38.0712Z" fill="#034EA2"/>
<path d="M16.945 38.0712H11.7808V43.2361H16.945V38.0712Z" fill="#034EA2"/>
<path d="M8.51227 46.4326H3.34863V51.5975H8.51227V46.4326Z" fill="#034EA2"/>
<path d="M16.945 46.4326H11.7808V51.5975H16.945V46.4326Z" fill="#034EA2"/>
<path d="M8.51227 54.7941H3.34863V59.9583H8.51227V54.7941Z" fill="#034EA2"/>
<path d="M16.945 54.7941H11.7808V59.9583H16.945V54.7941Z" fill="#034EA2"/>
<path d="M58.4389 30.2735H53.274V35.4384H58.4389V30.2735Z" fill="#034EA2"/>
<path d="M66.8704 30.2735H61.7068V35.4384H66.8704V30.2735Z" fill="#034EA2"/>
<path d="M58.4389 38.6343H53.274V43.7992H58.4389V38.6343Z" fill="#034EA2"/>
<path d="M66.8704 38.6343H61.7068V43.7992H66.8704V38.6343Z" fill="#034EA2"/>
<path d="M58.4389 46.9963H53.274V52.1612H58.4389V46.9963Z" fill="#034EA2"/>
<path d="M66.8704 46.9963H61.7068V52.1612H66.8704V46.9963Z" fill="#034EA2"/>
<path d="M58.4389 55.3577H53.274V60.5226H58.4389V55.3577Z" fill="#034EA2"/>
<path d="M66.8704 55.3577H61.7068V60.5226H66.8704V55.3577Z" fill="#034EA2"/>
<path d="M52.8901 13.4774H16.5599V64.1606H52.8901V13.4774Z" fill="#FFDD00"/>
<path d="M27.8442 17.3835H21.6942V23.5342H27.8442V17.3835Z" fill="#8BC2FF"/>
<path d="M37.8865 17.3835H31.7358V23.5342H37.8865V17.3835Z" fill="#8BC2FF"/>
<path d="M47.9282 17.3835H41.7776V23.5342H47.9282V17.3835Z" fill="#8BC2FF"/>
<path d="M27.7584 26.6342H21.6084V32.7855H27.7584V26.6342Z" fill="#8BC2FF"/>
<path d="M37.8 26.6342H31.65V32.7855H37.8V26.6342Z" fill="#8BC2FF"/>
<path d="M47.8424 26.6342H41.6918V32.7855H47.8424V26.6342Z" fill="#8BC2FF"/>
<path d="M27.672 35.8856H21.5226V42.0362H27.672V35.8856Z" fill="#8BC2FF"/>
<path d="M37.715 35.8856H31.5649V42.0362H37.715V35.8856Z" fill="#8BC2FF"/>
<path d="M47.7566 35.8856H41.606V42.0362H47.7566V35.8856Z" fill="#8BC2FF"/>
<path d="M27.5868 45.1369H21.4362V51.2882H27.5868V45.1369Z" fill="#8BC2FF"/>
<path d="M37.6298 45.1369H31.4791V51.2882H37.6298V45.1369Z" fill="#8BC2FF"/>
<path d="M47.6714 45.1369H41.5208V51.2882H47.6714V45.1369Z" fill="#8BC2FF"/>
<path d="M27.501 54.3889H21.351V60.5395H27.501V54.3889Z" fill="#8BC2FF"/>
<path d="M38.7821 53.978H29.9103V64.1606H38.7821V53.978Z" fill="#8BC2FF"/>
<path d="M47.5856 54.3889H41.4349V60.5395H47.5856V54.3889Z" fill="#8BC2FF"/>
<path d="M52.8901 64.1606H16.5599V66.077H52.8901V64.1606Z" fill="#9F9E9E"/>
<path d="M54.1602 66.077H15.0869V67.994H54.1602V66.077Z" fill="#7B7B7B"/>
</svg>
